<?xml version="1.0" standalone="no"?>
<!DOCTYPE svg PUBLIC "-//W3C//DTD SVG 20010904//EN"
 "http://www.w3.org/TR/2001/REC-SVG-20010904/DTD/svg10.dtd">
<svg version="1.0" xmlns="http://www.w3.org/2000/svg"
 width="500.000000pt" height="500.000000pt" viewBox="0 0 500.000000 500.000000"
 preserveAspectRatio="xMidYMid meet">
<metadata>
Created by potrace 1.16, written by Peter Selinger 2001-2019
</metadata>
<g transform="translate(0.000000,500.000000) scale(0.100000,-0.100000)"
fill="#000000" stroke="none">
<path d="M3230 4134 c-25 -8 -94 -28 -155 -45 -160 -44 -391 -158 -605 -297
-93 -61 -227 -185 -296 -274 -52 -67 -124 -203 -124 -234 0 -34 -10 -35 -44
-3 -38 36 -163 102 -233 122 -87 26 -216 31 -328 13 -107 -18 -310 -76 -465
-133 -78 -28 -457 -216 -600 -296 -70 -39 -168 -87 -178 -87 -16 0 -22 -27
-22 -95 0 -60 -1 -63 -30 -75 -94 -39 -102 -82 -38 -199 23 -42 58 -101 78
-131 21 -30 53 -86 73 -125 19 -38 48 -88 63 -110 77 -112 78 -113 244 -325
77 -98 88 -113 159 -216 30 -44 78 -111 108 -150 29 -40 53 -75 53 -78 0 -10
107 -163 157 -225 23 -29 43 -57 43 -62 0 -10 56 -97 92 -143 13 -16 25 -35
28 -41 3 -7 21 -33 40 -59 30 -40 39 -46 62 -42 27 5 120 45 210 92 26 13 87
40 135 60 178 73 300 127 431 191 93 45 150 67 387 149 72 25 175 63 230 84
311 120 309 119 465 120 119 0 130 2 205 33 67 28 83 39 98 69 32 65 335 243
566 332 51 20 105 42 119 50 36 19 148 66 156 66 10 0 108 45 416 192 119 56
157 74 183 82 9 3 17 10 17 15 0 5 -33 43 -72 85 -40 42 -102 107 -137 145
l-63 70 42 21 c23 12 40 24 38 29 -2 4 -93 94 -203 201 -276 267 -841 832
-905 905 -118 134 -321 335 -338 334 -9 0 -37 -7 -62 -15z m169 -111 c59 -60
143 -148 186 -198 123 -141 1037 -1045 1103 -1090 12 -9 22 -20 22 -24 0 -5
-28 -19 -62 -31 -106 -38 -672 -329 -793 -408 -212 -137 -471 -404 -531 -548
-19 -45 -14 -49 -128 113 -76 109 -210 280 -461 588 -45 55 -106 134 -135 175
-116 162 -285 361 -462 546 l-78 80 16 55 c37 128 133 270 256 380 151 136
518 339 728 402 187 57 215 65 223 66 4 1 56 -47 116 -106z m-1704 -627 c47
-9 116 -31 169 -55 104 -48 177 -114 370 -334 174 -200 196 -226 321 -392 62
-82 136 -180 166 -216 180 -219 377 -470 441 -560 97 -136 96 -134 72 -124
-173 74 -294 88 -459 55 -336 -68 -588 -153 -835 -282 -74 -39 -221 -115 -326
-169 l-191 -97 -40 61 c-22 34 -68 106 -101 160 -34 55 -82 127 -107 160 -25
34 -67 94 -93 133 -129 194 -272 392 -360 500 -131 159 -211 267 -306 414 -44
67 -101 146 -128 175 -26 29 -48 56 -48 59 0 3 21 16 47 29 27 13 104 53 173
89 212 112 442 225 510 251 102 40 347 113 435 131 150 29 185 30 290 12z
m-1294 -761 c117 -179 163 -242 289 -395 52 -63 125 -160 163 -215 38 -55 103
-147 144 -205 41 -58 92 -132 114 -165 21 -33 58 -88 81 -121 42 -60 165 -247
201 -303 14 -23 16 -40 11 -85 -4 -31 -10 -56 -13 -56 -15 0 -288 376 -323
444 -28 56 -156 242 -231 336 -34 43 -93 117 -132 165 -136 171 -228 292 -317
418 -99 140 -198 295 -198 309 0 23 20 0 70 -80 76 -122 123 -187 127 -175 2
6 -39 75 -92 154 -52 79 -95 150 -95 157 0 30 24 4 102 -109 45 -66 84 -115
86 -109 4 12 -88 157 -144 227 -19 23 -34 45 -34 50 1 21 103 -107 191 -242z
m115 -400 c46 -60 120 -155 164 -210 168 -208 214 -268 275 -358 34 -51 72
-112 85 -137 13 -25 43 -74 68 -110 51 -72 213 -292 222 -300 16 -14 44 -68
50 -95 11 -53 18 -50 280 111 156 96 455 250 580 299 146 56 152 59 355 124
245 79 295 89 388 73 40 -7 96 -24 126 -37 29 -14 60 -25 67 -25 8 0 14 -4 14
-10 0 -5 -24 -10 -53 -10 -66 0 -162 -16 -202 -35 -16 -7 -70 -28 -120 -45
-49 -17 -115 -42 -145 -55 -30 -13 -89 -35 -130 -48 -41 -14 -113 -39 -160
-57 -47 -17 -110 -39 -142 -49 -31 -10 -87 -35 -125 -54 -37 -20 -115 -57
-173 -82 -58 -26 -139 -61 -180 -79 -41 -19 -91 -39 -110 -46 -19 -7 -94 -41
-165 -76 -192 -92 -177 -89 -212 -46 -16 20 -43 60 -58 87 -16 28 -44 71 -62
96 -18 26 -33 50 -33 54 0 4 -31 48 -69 98 -37 51 -87 121 -109 157 -23 36
-51 78 -64 94 -13 17 -61 84 -107 150 -46 67 -136 187 -200 268 -157 200 -232
307 -288 408 -25 47 -62 110 -83 140 -20 30 -56 90 -78 134 -48 90 -46 106 20
136 l40 18 125 -187 c69 -102 163 -235 209 -296z m4199 335 l20 -22 -30 -24
c-17 -14 -48 -33 -70 -44 -22 -11 -60 -31 -85 -46 -57 -35 -280 -133 -390
-172 -256 -92 -400 -156 -570 -253 l-55 -31 60 56 c177 166 264 225 541 367
109 56 264 135 342 176 l144 73 36 -29 c21 -16 46 -39 57 -51z m35 -79 c0 -14
-11 -23 -37 -32 -75 -24 -304 -150 -285 -157 6 -2 72 29 148 67 144 75 174 84
174 52 0 -13 -16 -25 -52 -41 -29 -12 -138 -64 -243 -115 -139 -68 -254 -115
-428 -174 -132 -45 -258 -91 -280 -103 -49 -24 -160 -100 -201 -137 -32 -30
-109 -143 -125 -184 -11 -29 -41 -37 -41 -11 0 25 48 115 87 162 47 57 32 69
-17 13 -33 -38 -78 -120 -94 -173 -10 -32 -26 -20 -19 15 16 85 94 194 190
265 104 77 297 172 498 246 223 82 429 168 515 214 36 19 88 46 115 60 28 14
54 31 58 38 12 21 37 17 37 -5z m140 -121 c0 -6 -41 -26 -90 -45 -19 -7 -109
-49 -200 -92 -91 -44 -196 -94 -235 -110 -214 -94 -289 -126 -370 -159 -226
-91 -521 -274 -540 -335 -8 -25 -25 -25 -25 0 0 31 114 196 152 219 19 12 52
36 74 53 65 52 138 83 389 167 184 61 282 101 420 169 99 49 210 103 247 119
l67 29 1 50 0 49 55 -54 c30 -30 55 -57 55 -60z m-1881 -611 c126 -19 288 -94
290 -135 1 -6 -15 -18 -35 -28 -34 -16 -39 -16 -83 0 -25 10 -51 22 -58 27
-21 15 -156 47 -204 47 -46 0 -226 -41 -264 -60 -11 -5 -105 -39 -210 -74
-212 -71 -310 -111 -435 -177 -171 -91 -382 -214 -535 -311 -66 -42 -73 -39
-61 27 6 28 19 42 93 89 47 31 90 56 94 56 5 0 9 5 9 11 0 17 -41 0 -113 -48
-37 -25 -70 -44 -72 -41 -2 2 -1 16 3 30 7 29 13 32 227 143 66 34 179 94 250
133 249 136 523 231 876 301 113 23 139 24 228 10z m401 -156 c-1 -9 -119 -63
-137 -63 -29 0 -20 20 19 43 40 23 118 36 118 20z"/>
<path d="M606 2250 c5 -8 49 -69 99 -135 71 -93 211 -291 297 -419 4 -6 9 -8
12 -6 4 5 -93 161 -145 230 -159 217 -287 376 -263 330z"/>
<path d="M2802 1714 c-53 -14 -117 -42 -110 -49 2 -2 41 8 88 21 73 22 97 24
167 19 138 -11 203 -36 273 -103 10 -11 15 -11 18 -3 6 19 -24 46 -86 79 -95
50 -243 65 -350 36z"/>
<path d="M1730 1262 c-207 -118 -347 -210 -287 -189 26 10 360 207 377 223 27
26 -5 14 -90 -34z"/>
</g>
</svg>
